<svg width="101" height="50" viewBox="0 0 101 50" fill="none" xmlns="http://www.w3.org/2000/svg">
<circle cx="25" cy="25" r="25" fill="#AE003C"/>
<path d="M17.888 37V13.96H36.096C36.8 13.96 37.44 14.1307 38.016 14.472C38.6133 14.8133 39.0827 15.2827 39.424 15.88C39.7653 16.456 39.936 17.096 39.936 17.8V22.696C39.936 22.9947 39.8933 23.2933 39.808 23.592C39.744 23.8693 39.648 24.136 39.52 24.392C39.9893 25.096 40.3413 25.704 40.576 26.216C40.8107 26.728 40.928 27.2507 40.928 27.784V33.16C40.928 33.864 40.7573 34.5147 40.416 35.112C40.0747 35.688 39.6053 36.1467 39.008 36.488C38.432 36.8293 37.792 37 37.088 37H17.888ZM21.728 34.408H37.088C37.4293 34.408 37.7173 34.2907 37.952 34.056C38.208 33.8 38.336 33.5013 38.336 33.16V27.784C38.336 27.4427 38.208 27.1547 37.952 26.92C37.7173 26.664 37.4293 26.536 37.088 26.536H21.728C21.3867 26.536 21.088 26.664 20.832 26.92C20.5973 27.1547 20.48 27.4427 20.48 27.784V33.16C20.48 33.5013 20.5973 33.8 20.832 34.056C21.088 34.2907 21.3867 34.408 21.728 34.408ZM21.728 23.944H36.096C36.4373 23.944 36.7253 23.8267 36.96 23.592C37.1947 23.336 37.312 23.0373 37.312 22.696V17.8C37.312 17.4587 37.1947 17.1707 36.96 16.936C36.7253 16.68 36.4373 16.552 36.096 16.552H21.728C21.3867 16.552 21.088 16.68 20.832 16.936C20.5973 17.1707 20.48 17.4587 20.48 17.8V22.696C20.48 23.0373 20.5973 23.336 20.832 23.592C21.088 23.8267 21.3867 23.944 21.728 23.944ZM44.353 37V18.44H68.865C69.5903 18.44 70.241 18.6213 70.817 18.984C71.4143 19.3253 71.8837 19.7947 72.225 20.392C72.5663 20.968 72.737 21.608 72.737 22.312V37H70.145V22.312C70.145 21.9707 70.017 21.6827 69.761 21.448C69.505 21.192 69.2063 21.064 68.865 21.064H61.153C60.8117 21.064 60.513 21.192 60.257 21.448C60.0223 21.6827 59.905 21.9707 59.905 22.312V37H57.249V22.312C57.249 21.9707 57.121 21.6827 56.865 21.448C56.6303 21.192 56.3423 21.064 56.001 21.064H48.257C47.9157 21.064 47.617 21.192 47.361 21.448C47.1263 21.6827 47.009 21.9707 47.009 22.312V37H44.353ZM75.7943 37V13.96H94.0023C94.7063 13.96 95.3463 14.1307 95.9223 14.472C96.5196 14.8133 96.9889 15.2827 97.3303 15.88C97.6716 16.456 97.8423 17.096 97.8423 17.8V22.696C97.8423 22.9947 97.7996 23.2933 97.7143 23.592C97.6503 23.8693 97.5543 24.136 97.4263 24.392C97.8956 25.096 98.2476 25.704 98.4823 26.216C98.7169 26.728 98.8343 27.2507 98.8343 27.784V33.16C98.8343 33.864 98.6636 34.5147 98.3223 35.112C97.9809 35.688 97.5116 36.1467 96.9143 36.488C96.3383 36.8293 95.6983 37 94.9943 37H75.7943ZM79.6343 34.408H94.9943C95.3356 34.408 95.6236 34.2907 95.8583 34.056C96.1143 33.8 96.2423 33.5013 96.2423 33.16V27.784C96.2423 27.4427 96.1143 27.1547 95.8583 26.92C95.6236 26.664 95.3356 26.536 94.9943 26.536H79.6343C79.2929 26.536 78.9943 26.664 78.7383 26.92C78.5036 27.1547 78.3863 27.4427 78.3863 27.784V33.16C78.3863 33.5013 78.5036 33.8 78.7383 34.056C78.9943 34.2907 79.2929 34.408 79.6343 34.408ZM79.6343 23.944H94.0023C94.3436 23.944 94.6316 23.8267 94.8663 23.592C95.1009 23.336 95.2183 23.0373 95.2183 22.696V17.8C95.2183 17.4587 95.1009 17.1707 94.8663 16.936C94.6316 16.68 94.3436 16.552 94.0023 16.552H79.6343C79.2929 16.552 78.9943 16.68 78.7383 16.936C78.5036 17.1707 78.3863 17.4587 78.3863 17.8V22.696C78.3863 23.0373 78.5036 23.336 78.7383 23.592C78.9943 23.8267 79.2929 23.944 79.6343 23.944Z" fill="white"/>
</svg>
